<svg width="102" height="129" viewBox="0 0 102 129" fill="none" xmlns="http://www.w3.org/2000/svg">
<path d="M47.5974 7.34375C44.5556 7.34375 42.0896 9.80978 42.0896 12.8516V15.5328C42.0896 22.3287 37.7021 28.1152 31.6126 30.2195V12.8516C31.6126 9.80978 29.1466 7.34375 26.1048 7.34375C23.063 7.34375 20.597 9.80978 20.597 12.8516V29.8814C14.9772 27.5398 11.0156 21.9912 11.0156 15.5328V12.8516C11.0156 9.80978 8.54959 7.34375 5.50781 7.34375C2.46603 7.34375 0 9.80978 0 12.8516V15.5328C0 28.1262 8.81507 38.6924 20.597 41.4041V62.8673H14.6295C11.5877 62.8673 9.12167 65.3333 9.12167 68.3751V111.155C9.12167 120.52 16.7404 128.139 26.1048 128.139C35.4692 128.139 43.088 120.52 43.088 111.155V68.3751C43.088 65.3333 40.6219 62.8673 37.5802 62.8673H31.6126V41.5961C43.8411 39.2263 53.1052 28.4434 53.1052 15.5328V12.8516C53.1052 9.80941 50.6392 7.34375 47.5974 7.34375ZM32.0727 111.155C32.0727 114.445 29.3956 117.123 26.1052 117.123C22.8148 117.123 20.1377 114.445 20.1377 111.155V73.8829H32.0731L32.0727 111.155Z" fill="#FE724C"/>
<path d="M68.2331 0C65.1913 0 62.7252 2.46603 62.7252 5.50781V111.155C62.7252 120.52 70.344 128.139 79.7084 128.139C89.0728 128.139 96.6916 120.52 96.6916 111.155V73.8476C99.4473 73.5447 101.592 71.2112 101.592 68.3751V33.359C101.592 14.9647 86.6273 0 68.2331 0ZM73.7409 11.7023C83.406 14.1617 90.5764 22.9389 90.5764 33.3586V62.8669H73.7409V11.7023ZM79.7088 117.123C76.4184 117.123 73.7412 114.445 73.7412 111.155V73.8829H85.6767V111.155C85.6763 114.445 82.9991 117.123 79.7088 117.123Z" fill="#FE724C" fill-opacity="0.7"/>
</svg>
