<svg xmlns="http://www.w3.org/2000/svg" width="77.991" height="79.005" viewBox="0 0 77.991 79.005">
  <g id="Logo" transform="translate(-389.004 -25.998)">
    <path id="Shape_4" data-name="Shape 4" d="M426.511,100.336c-11.844-5.3-19.795-15.466-22.991-29.4a60.836,60.836,0,0,1-1.256-19.32l.418-3.307,3.369.2c.029,0,.2.008.479.008,2.765,0,12.287-.594,18.7-8.228L428,37l2.767,3.295c6.412,7.636,15.932,8.228,18.7,8.228.28,0,.452-.007.494-.009l3.342-.175.428,3.281a60.822,60.822,0,0,1-1.255,19.32c-3.2,13.929-11.147,24.094-22.991,29.4L428,101Zm-22.3-48.475a58.728,58.728,0,0,0,1.224,18.651c3.055,13.316,10.623,23.018,21.887,28.059l.675.3.674-.3c11.263-5.042,18.832-14.744,21.887-28.059a58.775,58.775,0,0,0,1.223-18.651l-.193-1.5-1.525.085c-.025,0-.236.011-.6.011-2.982,0-13.251-.642-20.208-8.928L428,40.034l-1.259,1.5c-6.958,8.285-17.225,8.928-20.208,8.928-.365,0-.576-.01-.6-.011l-1.531-.091Zm1.623.2s13.508.806,22.163-9.5c8.653,10.3,22.162,9.5,22.162,9.5S454.356,85.3,428,97.1C401.631,85.3,405.832,52.061,405.832,52.061Z" fill="#69cfbb"/>
    <path id="Shape_2" data-name="Shape 2" d="M427.5,26l1.392,2.963,3.11.475-2.251,2.309L430.278,35,427.5,33.464,424.714,35l.53-3.258-2.25-2.309,3.111-.475Z" fill="#f36b7f"/>
    <path id="Shape_2-2" data-name="Shape 2" d="M443.5,34l1.392,2.964,3.11.474-2.251,2.309L446.278,43l-2.783-1.54L440.714,43l.53-3.258-2.25-2.309,3.111-.474Z" fill="#f8cf61"/>
    <path id="Shape_2-3" data-name="Shape 2" d="M411.5,34l1.392,2.964,3.11.474-2.251,2.309L414.278,43l-2.783-1.54L408.714,43l.53-3.258-2.25-2.309,3.111-.474Z" fill="#f8cf61"/>
    <path id="Shape_3" data-name="Shape 3" d="M444.5,98.9a55.3,55.3,0,0,0,4.854-3.926c-.817-.948-.949-2.678-.456-4.781a16.726,16.726,0,0,1,2.964-6.322,2.956,2.956,0,0,1,1.5,1.64,5.23,5.23,0,0,1,.35,1.4,7.652,7.652,0,0,1-.059,1.739,9.655,9.655,0,0,1-.981,3.01q.974-1.068,1.908-2.23.714-.881,1.361-1.779a2.81,2.81,0,0,1-.786-1.158,5.348,5.348,0,0,1-.3-1.182,8.235,8.235,0,0,1-.109-1.447,14.048,14.048,0,0,1,1.315-5.783,2.522,2.522,0,0,1,1.532,1.1,4.24,4.24,0,0,1,.538,1.105,6.674,6.674,0,0,1,.258,1.445,7.71,7.71,0,0,1-.209,2.468,41.948,41.948,0,0,0,2.238-4.428,2.243,2.243,0,0,1-.813-.759,6.044,6.044,0,0,1-.792-2,8.159,8.159,0,0,1-.169-1.248,8.789,8.789,0,0,1-.054-1.264c.005-.417.068-.817.112-1.214a6.984,6.984,0,0,1,.221-1.137c.928.014,1.933.876,2.4,2.559a7.2,7.2,0,0,1,.243,2.112c.486-1.389.865-2.712,1.166-3.942-.569-.127-1.081-.728-1.469-1.7a6.026,6.026,0,0,1-.409-1.718,7.209,7.209,0,0,1,.008-1.679c.637-.067,1.355.45,1.86,1.556a6.006,6.006,0,0,1,.4,1.786v.014c.241-1.179.412-2.241.546-3.154a30.962,30.962,0,0,1-.177,3.1,6.83,6.83,0,0,1,.866-1.563c.687-1.009,1.48-1.477,2.1-1.3a5.921,5.921,0,0,1-.333,1.871,6.775,6.775,0,0,1-.913,1.724,2.344,2.344,0,0,1-1.976,1.157,34.485,34.485,0,0,1-.916,4.027,12.442,12.442,0,0,1,1.333-1.705c1.258-1.337,2.46-1.924,3.344-1.544a10.333,10.333,0,0,1-.312,1.381,8.792,8.792,0,0,1-.578,1.372,11.123,11.123,0,0,1-.763,1.284,9.476,9.476,0,0,1-.979,1.092,4.551,4.551,0,0,1-1.976,1.2,2.134,2.134,0,0,1-1.117.023,37.384,37.384,0,0,1-2.127,4.532,21.1,21.1,0,0,1,1.937-1.622,9.764,9.764,0,0,1,1.367-.835,6.119,6.119,0,0,1,1.215-.491,2.3,2.3,0,0,1,1.915.184,11.281,11.281,0,0,1-1.795,3.243,12.045,12.045,0,0,1-1.315,1.391,8.3,8.3,0,0,1-1.484,1.107,8.072,8.072,0,0,1-1.465.7,4.781,4.781,0,0,1-1.3.243,2.607,2.607,0,0,1-1.368-.284q-.66.927-1.393,1.834-.936,1.168-1.925,2.234a22.575,22.575,0,0,1,2.9-1.541,12.3,12.3,0,0,1,1.8-.64,6.941,6.941,0,0,1,1.541-.281,2.71,2.71,0,0,1,2.186.671,13.43,13.43,0,0,1-6.844,5.571c-2.41.8-4.2.485-5.076-.4a46.447,46.447,0,0,1-5.082,3.826A39.326,39.326,0,0,1,436,104,57.519,57.519,0,0,0,444.5,98.9Zm18.676-32.382a8.529,8.529,0,0,1-.191-2.023,6.979,6.979,0,0,1,.722-3.5,6.076,6.076,0,0,1,.943,3.5,8.925,8.925,0,0,1-.272,2.076,4.067,4.067,0,0,1-.71,1.42A4.744,4.744,0,0,1,463.174,66.521Z" fill="#252c3a"/>
    <path id="Shape_3-2" data-name="Shape 3" d="M411.039,100.557a46.462,46.462,0,0,1-5.082-3.826c-.876.888-2.666,1.2-5.075.4a13.433,13.433,0,0,1-6.845-5.571,2.712,2.712,0,0,1,2.186-.671,6.891,6.891,0,0,1,1.541.281,12.3,12.3,0,0,1,1.8.64,22.572,22.572,0,0,1,2.9,1.54q-.986-1.066-1.924-2.233-.733-.905-1.393-1.833a2.609,2.609,0,0,1-1.368.283,4.781,4.781,0,0,1-1.3-.243,8.072,8.072,0,0,1-1.465-.7,8.257,8.257,0,0,1-1.484-1.107,11.969,11.969,0,0,1-1.315-1.391,11.281,11.281,0,0,1-1.795-3.243,2.292,2.292,0,0,1,1.915-.184,6.121,6.121,0,0,1,1.215.491,9.768,9.768,0,0,1,1.367.835,21.152,21.152,0,0,1,1.936,1.621,37.387,37.387,0,0,1-2.126-4.531,2.136,2.136,0,0,1-1.117-.023,4.545,4.545,0,0,1-1.976-1.2,9.318,9.318,0,0,1-.979-1.091,11.124,11.124,0,0,1-.763-1.284,8.792,8.792,0,0,1-.578-1.372,10.353,10.353,0,0,1-.312-1.38c.885-.381,2.086.206,3.344,1.544a12.416,12.416,0,0,1,1.332,1.7,34.51,34.51,0,0,1-.915-4.026,2.345,2.345,0,0,1-1.976-1.157,6.787,6.787,0,0,1-.913-1.724,5.916,5.916,0,0,1-.333-1.871c.619-.18,1.412.288,2.1,1.3a6.863,6.863,0,0,1,.865,1.558A30.962,30.962,0,0,1,392.332,69c.134.913.305,1.975.546,3.153v-.013a6.006,6.006,0,0,1,.4-1.786c.5-1.105,1.223-1.623,1.86-1.556a7.216,7.216,0,0,1,.008,1.68,6.014,6.014,0,0,1-.409,1.717c-.388.969-.9,1.57-1.469,1.7.3,1.23.68,2.554,1.165,3.943a7.2,7.2,0,0,1,.243-2.112c.466-1.683,1.472-2.544,2.4-2.559A7,7,0,0,1,397.3,74.3c.044.4.106.8.112,1.214a8.794,8.794,0,0,1-.054,1.264,8.159,8.159,0,0,1-.169,1.248,6.057,6.057,0,0,1-.792,2,2.238,2.238,0,0,1-.813.758,41.95,41.95,0,0,0,2.238,4.429,7.7,7.7,0,0,1-.209-2.469,6.691,6.691,0,0,1,.258-1.446,4.263,4.263,0,0,1,.538-1.1,2.517,2.517,0,0,1,1.532-1.1,14.041,14.041,0,0,1,1.315,5.783,8.235,8.235,0,0,1-.109,1.447,5.388,5.388,0,0,1-.3,1.181,2.812,2.812,0,0,1-.787,1.159q.648.9,1.361,1.779.931,1.162,1.908,2.23a9.655,9.655,0,0,1-.981-3.01,7.654,7.654,0,0,1-.059-1.739,5.231,5.231,0,0,1,.35-1.4,2.956,2.956,0,0,1,1.5-1.64,16.734,16.734,0,0,1,2.965,6.322c.492,2.1.359,3.832-.457,4.781A55.305,55.305,0,0,0,411.5,99.9,57.521,57.521,0,0,0,420,105,39.326,39.326,0,0,1,411.039,100.557ZM391.623,67.576a8.909,8.909,0,0,1-.272-2.075,6.076,6.076,0,0,1,.943-3.5,6.969,6.969,0,0,1,.722,3.5,8.522,8.522,0,0,1-.191,2.023A4.745,4.745,0,0,1,392.333,69,4.063,4.063,0,0,1,391.623,67.576Z" fill="#252c3a"/>
    <text id="E" transform="translate(427.922 81.449)" fill="#fff" font-size="36" font-family="Rubik-Bold, Rubik" font-weight="700"><tspan x="-11.502" y="0">E</tspan></text>
  </g>
</svg>
